<svg width="176" height="80" viewBox="0 0 176 80" fill="none" xmlns="http://www.w3.org/2000/svg">
<path d="M161.448 69.8925V69.2399C161.335 69.2241 161.032 69.2084 160.841 69.2084C159.532 69.2084 158.798 69.6067 158.798 70.3697C158.798 71.0381 159.261 71.3734 160.013 71.3734C160.859 71.3734 161.45 70.768 161.45 69.8925M170.018 72.9016L169.986 72.0104C169.445 72.7418 168.757 73.1086 167.752 73.1086C166.044 73.1086 164.961 71.8978 164.961 70.0051V64.6419H167.387V69.6067C167.387 70.6105 167.818 71.1506 168.617 71.1506C169.415 71.1506 169.925 70.5137 169.925 69.5122V64.6419H172.351V72.9016H170.018ZM170.799 63.5256H166.762V62.1414L170.799 61.4258V63.5256ZM163.761 72.9016H161.495L161.463 72.0419C160.969 72.7103 160.267 73.1086 159.293 73.1086C157.553 73.1086 156.452 72.1229 156.452 70.561C156.452 68.7627 158.063 67.7117 160.617 67.7117C160.92 67.7117 161.24 67.7275 161.432 67.7432C161.432 66.852 160.809 66.3433 159.692 66.3433C158.798 66.3433 157.842 66.5661 156.883 66.933V64.9907C157.855 64.6239 158.862 64.4326 160.073 64.4326C162.436 64.4326 163.761 65.6907 163.761 68.0448V72.9016ZM155.687 66.5189H153.581V69.8925C153.581 70.768 153.933 71.1506 154.714 71.1506C155.082 71.1506 155.4 71.1034 155.576 71.0561V72.9016C155.305 72.9804 154.746 73.0614 154.076 73.0614C152.209 73.0614 151.156 72.0576 151.156 70.0523V66.5189H149.944V64.6419H151.156V62.5736L153.581 62.1437V64.6419H155.687V66.5189ZM149.24 62.3958C149.24 63.2082 148.649 63.7799 147.802 63.7799C146.956 63.7799 146.367 63.2217 146.367 62.3958C146.367 61.5698 146.959 61.0116 147.802 61.0116C148.646 61.0116 149.24 61.5698 149.24 62.3958ZM146.591 64.6396H149.016V72.8993H146.591V64.6396ZM176 63.5098C176 58.6913 175.524 54.1451 174.842 51.2958C174.502 49.6663 173.549 48.5816 171.713 48.1742C168.718 47.427 164.298 47.0196 159.466 47.0196C154.635 47.0196 150.215 47.427 147.22 48.1742C145.383 48.5816 144.431 49.6663 144.09 51.2958C143.409 54.1451 142.933 58.6913 142.933 63.5098C142.933 68.3284 143.409 72.8746 144.09 75.7239C144.431 77.3533 145.383 78.4381 147.22 78.8454C150.215 79.5926 154.635 80 159.466 80C164.298 80 168.718 79.5926 171.713 78.8454C173.549 78.4381 174.502 77.3533 174.842 75.7239C175.522 72.8746 176 68.3284 176 63.5098Z" fill="white"/>
<path d="M0 0H3.29453V23.341H3.50438C4.87184 21.563 6.24381 19.9854 7.48264 18.545L23.8831 0H27.8704L10.2943 19.5735L29.5131 46.1352H25.6003L8.03098 21.8309L3.29453 27.032V46.1329H0V0Z" fill="white"/>
<path d="M34.0803 13.2831H37.3771V46.1352H34.0803V13.2831Z" fill="white"/>
<path d="M45.5141 13.2831H48.7116L48.7342 19.1639H48.7116C50.501 15.4707 54.6892 12.5269 60.0416 12.5269C63.194 12.5269 71.5657 14.1 71.5657 26.4199V46.1374H68.278V26.6944C68.278 20.6741 65.9425 15.2659 59.1435 15.2659C54.5515 15.2659 50.571 18.5472 49.2622 22.8661C49.0546 23.6156 48.8538 24.7116 48.8538 25.7357V46.1352H45.557L45.5164 13.2831H45.5141Z" fill="white"/>
<path d="M79.9735 29.3614C79.9735 39.838 85.739 44.0128 92.5356 44.0128C97.333 44.0128 99.8061 43.0518 101.661 42.1651L102.489 44.6948C101.248 45.3789 97.8836 46.8193 92.1227 46.8193C82.6543 46.8193 76.7512 39.973 76.7512 30.3224C76.7512 19.3687 83.0605 12.5246 91.5721 12.5246C102.345 12.5246 104.405 22.6546 104.405 27.3764C104.405 28.2676 104.405 28.7492 104.267 29.3636H79.9758L79.9735 29.3614ZM100.971 26.6967C101.038 22.1054 99.1202 15.2636 91.1546 15.2636C83.8841 15.2636 80.7949 21.6261 80.1789 26.6967H100.971Z" fill="white"/>
<path d="M132.011 46.1329H128.672C128.672 46.1329 128.694 42.7435 128.694 41.6474C126.972 44.1186 123.394 46.8891 118.283 46.8891C111.619 46.8891 108.602 42.2304 108.602 37.8529C108.602 30.2526 115.053 25.3913 128.708 25.7154V24.9119C128.708 21.6936 128.092 15.1961 120.268 15.2636C117.384 15.2636 114.365 16.0153 111.964 17.7258L110.931 15.3311C113.955 13.3528 117.662 12.5246 120.614 12.5246C130.147 12.5246 132 19.6433 132 25.4611L132.011 46.1329ZM128.705 28.5444C121.498 28.3374 112.034 29.4289 112.034 37.3015C112.034 42.0278 115.187 44.1501 118.619 44.1501C124.109 44.1501 127.266 40.799 128.369 37.5806C128.638 36.8919 128.705 36.1402 128.705 35.5956V28.5444Z" fill="white"/>
<path d="M33.3763 5.53874C33.3763 4.20638 34.4549 3.12834 35.793 3.12834C37.1311 3.12834 38.203 4.20413 38.203 5.53874C38.203 6.87335 37.1199 7.94238 35.793 7.94238C34.4662 7.94238 33.3763 6.86885 33.3763 5.53874Z" fill="white"/>
<path d="M51.882 72.7913C51.0832 72.7913 50.4492 72.5145 49.9798 71.9608C49.5104 71.4072 49.2758 70.6645 49.2758 69.726V64.8984H50.5936V69.5302C50.5936 70.1986 50.7402 70.723 51.0358 71.1056C51.3315 71.4882 51.7467 71.6818 52.286 71.6818C52.8253 71.6818 53.2788 71.486 53.6196 71.0921C53.958 70.6983 54.1295 70.1829 54.1295 69.5459V64.8984H55.4474V72.5955H54.2943L54.2198 71.594C53.7008 72.3907 52.9223 72.7891 51.882 72.7891V72.7913Z" fill="white"/>
<path d="M57.3361 72.5955V64.8984H58.4892L58.5501 65.8099C58.8006 65.4611 59.1074 65.191 59.4707 64.9952C59.8363 64.8017 60.247 64.7049 60.7073 64.7049C61.206 64.7049 61.637 64.8242 61.9958 65.0627C62.3546 65.3013 62.6344 65.6299 62.8352 66.0485C63.0857 65.6209 63.4151 65.2878 63.8236 65.0537C64.232 64.8197 64.6969 64.7026 65.2181 64.7026C65.9673 64.7026 66.5607 64.9547 67.0008 65.4566C67.4408 65.9607 67.6597 66.6404 67.6597 67.4956V72.591H66.3419V67.7049C66.3419 67.1063 66.2087 66.6449 65.9447 66.3163C65.6807 65.9877 65.3084 65.8234 64.8277 65.8234C64.3471 65.8234 63.9364 65.9945 63.6205 66.3388C63.3068 66.6832 63.1489 67.1333 63.1489 67.6914V72.5933H61.8311V67.7072C61.8311 67.1085 61.6979 66.6472 61.4339 66.3186C61.1699 65.99 60.7976 65.8257 60.3169 65.8257C59.8363 65.8257 59.4279 65.9967 59.1187 66.3411C58.8096 66.6854 58.6539 67.1355 58.6539 67.6937V72.5955H57.3361Z" fill="white"/>
<path d="M71.5996 72.7913C70.8594 72.7913 70.266 72.5865 69.8169 72.1791C69.3679 71.7718 69.1422 71.2316 69.1422 70.5655C69.1422 69.708 69.4942 69.0486 70.1983 68.5849C70.9023 68.1213 71.9177 67.8895 73.2468 67.8895C73.4454 67.8895 73.662 67.894 73.8922 67.9053C73.8719 66.5099 73.2581 65.8122 72.0486 65.8122C71.1505 65.8122 70.3901 66.0913 69.7718 66.6494V65.4679C70.0516 65.2383 70.4036 65.0537 70.8278 64.9142C71.2521 64.7747 71.6785 64.7049 72.1095 64.7049C73.0979 64.7049 73.8583 64.9795 74.3864 65.5264C74.9167 66.0733 75.1807 66.8655 75.1807 67.903V72.5955H74.0569L73.9825 71.5805C73.7433 71.9586 73.4138 72.2557 72.9941 72.4695C72.5744 72.6833 72.1095 72.7913 71.5996 72.7913ZM73.8922 68.8753C73.662 68.8663 73.4319 68.8595 73.204 68.8595C72.2946 68.8595 71.6041 68.9945 71.128 69.2624C70.6541 69.5324 70.4171 69.9195 70.4171 70.4282C70.4171 70.8378 70.5548 71.1664 70.8301 71.4139C71.1054 71.6638 71.4619 71.7875 71.9019 71.7875C72.272 71.7875 72.606 71.6975 72.9061 71.5197C73.2062 71.3397 73.4454 71.0989 73.6259 70.795C73.8064 70.4912 73.8967 70.1604 73.8967 69.8003V68.873L73.8922 68.8753Z" fill="white"/>
<path d="M82.7919 72.7913C81.6524 72.7913 80.7566 72.4267 80.1022 71.6998C79.4478 70.9728 79.1206 69.9803 79.1206 68.7267C79.1206 67.9188 79.2605 67.2143 79.5403 66.6112C79.8201 66.008 80.2172 65.5399 80.7317 65.2068C81.2462 64.8737 81.8419 64.7071 82.5212 64.7071C83.4802 64.7071 84.2339 65.0402 84.7845 65.7087C85.3328 66.3771 85.6081 67.2931 85.6081 68.4589V69.1453H80.3932C80.4632 69.9511 80.7182 70.5767 81.1582 71.0201C81.5982 71.4635 82.1917 71.684 82.9409 71.684C83.3493 71.684 83.751 71.6187 84.1391 71.4905C84.5295 71.3599 84.8634 71.1866 85.1432 70.9683V72.1049C84.8725 72.3142 84.5227 72.4807 84.094 72.6045C83.6652 72.7283 83.2297 72.7913 82.7897 72.7913H82.7919ZM80.409 68.1438H84.3805C84.3512 67.3876 84.1684 66.8025 83.8344 66.3883C83.5005 65.9742 83.0424 65.7672 82.4625 65.7672C81.8826 65.7672 81.3861 65.972 81.0318 66.3793C80.6776 66.789 80.47 67.3764 80.409 68.1416V68.1438Z" fill="white"/>
<path d="M87.0477 72.5955V64.8984H88.2008L88.2618 65.8099C88.5122 65.4611 88.8191 65.191 89.1824 64.9952C89.548 64.8017 89.9587 64.7049 90.419 64.7049C90.9177 64.7049 91.3487 64.8242 91.7075 65.0627C92.0663 65.3013 92.3461 65.6299 92.5469 66.0485C92.7974 65.6209 93.1268 65.2878 93.5353 65.0537C93.9437 64.8197 94.4085 64.7026 94.9298 64.7026C95.679 64.7026 96.2724 64.9547 96.7124 65.4566C97.1525 65.9607 97.3714 66.6404 97.3714 67.4956V72.591H96.0535V67.7049C96.0535 67.1063 95.9204 66.6449 95.6564 66.3163C95.3924 65.9877 95.02 65.8234 94.5394 65.8234C94.0588 65.8234 93.6481 65.9945 93.3322 66.3388C93.0185 66.6832 92.8606 67.1333 92.8606 67.6914V72.5933H91.5427V67.7072C91.5427 67.1085 91.4096 66.6472 91.1456 66.3186C90.8816 65.99 90.5093 65.8257 90.0286 65.8257C89.548 65.8257 89.1395 65.9967 88.8304 66.3411C88.5213 66.6854 88.3656 67.1355 88.3656 67.6937V72.5955H87.0477Z" fill="white"/>
<path d="M99.1991 75.3615V64.9007H100.352L100.442 66.1115C100.682 65.6727 101.013 65.3306 101.44 65.0807C101.864 64.8309 102.347 64.7071 102.886 64.7071C103.516 64.7071 104.064 64.8714 104.534 65.2C105.003 65.5286 105.368 65.9922 105.628 66.5886C105.887 67.1873 106.018 67.894 106.018 68.711C106.018 69.5279 105.883 70.2571 105.614 70.8693C105.344 71.4815 104.969 71.9563 104.491 72.2894C104.012 72.6225 103.446 72.7891 102.798 72.7891C102.3 72.7891 101.857 72.6788 101.471 72.4605C101.088 72.2422 100.77 71.9383 100.519 71.549V75.3593H99.2014L99.1991 75.3615ZM102.555 71.684C103.204 71.684 103.721 71.4207 104.105 70.8918C104.488 70.3629 104.682 69.6472 104.682 68.7402C104.682 67.8332 104.491 67.1198 104.105 66.5954C103.721 66.0733 103.202 65.8099 102.555 65.8099C101.907 65.8099 101.408 66.0733 101.034 66.6021C100.659 67.131 100.472 67.8377 100.472 68.7245C100.472 69.6112 100.661 70.3382 101.04 70.8761C101.42 71.4139 101.925 71.6818 102.555 71.6818V71.684Z" fill="white"/>
<path d="M107.469 72.5955V64.8984H108.622L108.713 66.0485C108.882 65.6591 109.132 65.3463 109.462 65.1078C109.791 64.8692 110.15 64.7499 110.54 64.7499C110.8 64.7499 111.039 64.8039 111.26 64.9142V66.1093C111.071 65.999 110.825 65.945 110.527 65.945C110.008 65.945 109.588 66.1565 109.268 66.5796C108.947 67.0028 108.789 67.5632 108.789 68.2608V72.5955H107.469Z" fill="white"/>
<path d="M115.875 72.7913C114.735 72.7913 113.839 72.4267 113.185 71.6998C112.531 70.9728 112.203 69.9803 112.203 68.7267C112.203 67.9188 112.343 67.2143 112.623 66.6112C112.903 66.008 113.3 65.5399 113.815 65.2068C114.329 64.8737 114.925 64.7071 115.604 64.7071C116.563 64.7071 117.317 65.0402 117.867 65.7087C118.416 66.3771 118.691 67.2931 118.691 68.4589V69.1453H113.476C113.546 69.9511 113.801 70.5767 114.241 71.0201C114.681 71.4635 115.275 71.684 116.024 71.684C116.432 71.684 116.834 71.6187 117.222 71.4905C117.61 71.3622 117.946 71.1866 118.226 70.9683V72.1049C117.955 72.3142 117.606 72.4807 117.177 72.6045C116.748 72.7283 116.313 72.7913 115.873 72.7913H115.875ZM113.492 68.1438H117.463C117.434 67.3876 117.251 66.8025 116.917 66.3883C116.583 65.9742 116.125 65.7672 115.545 65.7672C114.965 65.7672 114.469 65.972 114.115 66.3793C113.76 66.789 113.553 67.3764 113.492 68.1416V68.1438Z" fill="white"/>
<path d="M121.988 72.7913C121.559 72.7913 121.162 72.7463 120.796 72.6563C120.431 72.5663 120.054 72.4222 119.666 72.2219V71.0403C120.406 71.4995 121.164 71.7268 121.943 71.7268C122.441 71.7268 122.838 71.6165 123.134 71.3982C123.43 71.1799 123.576 70.8851 123.576 70.516C123.576 70.1964 123.45 69.9398 123.195 69.7462C122.94 69.5527 122.468 69.3614 121.78 69.1701C121.06 68.9608 120.535 68.6772 120.198 68.3171C119.864 67.9593 119.697 67.5001 119.697 66.942C119.697 66.5144 119.819 66.1295 120.065 65.7919C120.309 65.4543 120.643 65.1865 121.063 64.993C121.482 64.7994 121.956 64.7026 122.486 64.7026C122.816 64.7026 123.163 64.7477 123.527 64.8377C123.892 64.9277 124.188 65.0425 124.418 65.182V66.3186C123.858 65.9495 123.229 65.7649 122.529 65.7649C122.051 65.7649 121.67 65.864 121.39 66.0643C121.11 66.2646 120.97 66.5369 120.97 66.8857C120.97 67.1941 121.09 67.4439 121.329 67.6329C121.568 67.822 121.992 68.002 122.602 68.1708C123.421 68.4004 124.005 68.6975 124.355 69.0598C124.705 69.4244 124.878 69.9083 124.878 70.516C124.878 71.2024 124.614 71.7538 124.084 72.1679C123.554 72.582 122.857 72.7891 121.986 72.7891L121.988 72.7913Z" fill="white"/>
<path d="M128.43 72.7913C127.69 72.7913 127.097 72.5865 126.648 72.1791C126.198 71.7718 125.973 71.2316 125.973 70.5655C125.973 69.708 126.325 69.0486 127.029 68.5849C127.733 68.1213 128.748 67.8895 130.077 67.8895C130.278 67.8895 130.493 67.894 130.723 67.9053C130.702 66.5099 130.089 65.8122 128.879 65.8122C127.981 65.8122 127.221 66.0913 126.602 66.6494V65.4679C126.882 65.2383 127.234 65.0537 127.658 64.9142C128.083 64.7747 128.509 64.7049 128.94 64.7049C129.928 64.7049 130.689 64.9795 131.217 65.5264C131.747 66.0733 132.011 66.8655 132.011 67.903V72.5955H130.888L130.813 71.5805C130.574 71.9586 130.244 72.2557 129.825 72.4695C129.405 72.6833 128.94 72.7913 128.43 72.7913ZM130.723 68.8753C130.493 68.8663 130.262 68.8595 130.035 68.8595C129.125 68.8595 128.435 68.9945 127.959 69.2624C127.485 69.5324 127.248 69.9195 127.248 70.4282C127.248 70.8378 127.385 71.1664 127.661 71.4139C127.936 71.6638 128.293 71.7875 128.733 71.7875C129.103 71.7875 129.437 71.6975 129.737 71.5197C130.037 71.3397 130.276 71.0989 130.457 70.795C130.637 70.4912 130.727 70.1604 130.727 69.8003V68.873L130.723 68.8753Z" fill="white"/>
</svg>
